<svg width="18" height="12" viewBox="0 0 18 12" fill="none" xmlns="http://www.w3.org/2000/svg">
<g clip-path="url(#clip0_71_3783)">
<path fill-rule="evenodd" clip-rule="evenodd" d="M0.410156 0H7.61016V5.6H0.410156V0Z" fill="#1A47B8"/>
<path fill-rule="evenodd" clip-rule="evenodd" d="M7.61016 0L7.61016 0.8H17.2102V0H7.61016ZM7.61016 1.6V2.4H17.2102V1.6H7.61016ZM7.61016 3.2V4H17.2102V3.2H7.61016ZM7.61016 4.8L7.61016 5.6H17.2102V4.8H7.61016ZM0.410156 6.4V7.2H17.2102V6.4H0.410156ZM0.410156 8V8.8H17.2102V8H0.410156ZM0.410156 9.6V10.4H17.2102V9.6H0.410156ZM0.410156 11.2V12H17.2102V11.2H0.410156Z" fill="#F93939"/>
<path fill-rule="evenodd" clip-rule="evenodd" d="M1.21006 0.799984V1.59998H2.01006V0.799984H1.21006ZM2.81006 0.799984V1.59998H3.61006V0.799984H2.81006ZM4.41006 0.799984V1.59998H5.21006V0.799984H4.41006ZM6.01006 0.799984V1.59998H6.81006V0.799984H6.01006ZM5.21006 1.59998V2.39998H6.01006V1.59998H5.21006ZM3.61006 1.59998V2.39998H4.41006V1.59998H3.61006ZM2.01006 1.59998V2.39998H2.81006V1.59998H2.01006ZM1.21006 2.39998V3.19998H2.01006V2.39998H1.21006ZM2.81006 2.39998V3.19998H3.61006V2.39998H2.81006ZM4.41006 2.39998V3.19998H5.21006V2.39998H4.41006ZM6.01006 2.39998V3.19998H6.81006V2.39998H6.01006ZM1.21006 3.99998V4.79998H2.01006V3.99998H1.21006ZM2.81006 3.99998V4.79998H3.61006V3.99998H2.81006ZM4.41006 3.99998V4.79998H5.21006V3.99998H4.41006ZM6.01006 3.99998V4.79998H6.81006V3.99998H6.01006ZM5.21006 3.19998V3.99998H6.01006V3.19998H5.21006ZM3.61006 3.19998V3.99998H4.41006V3.19998H3.61006ZM2.01006 3.19998V3.99998H2.81006V3.19998H2.01006Z" fill="white"/>
</g>
<defs>
<clipPath id="clip0_71_3783">
<rect x="0.410156" width="16.8" height="12" rx="2" fill="white"/>
</clipPath>
</defs>
</svg>
