<svg width="290" height="62" viewBox="0 0 290 62" fill="none" xmlns="http://www.w3.org/2000/svg">
<g clip-path="url(#clip0_95_144)">
<path d="M0 0.247681H4.66326L9.24596 21.6558H9.32652L14.9937 0.247681H18.1976L23.843 21.6558H23.9236L28.5218 0.247681H33.185L25.8974 30.364H22.1946L16.6328 8.6431H16.5522L10.9687 30.364H7.2846L0 0.247681Z" fill="#AE3625"/>
<path d="M48.8447 0.247681H67.4885V4.54294H53.2632V13.1613H65.4063V17.2057H53.2632V26.0719H67.4885V30.3671H48.8447V0.247681Z" fill="#AE3625"/>
<path d="M83.7496 23.068C86.0735 25.0407 88.8374 26.0409 92.0444 26.0688C95.8369 26.013 97.7611 24.6133 97.8138 21.8726C97.8417 19.6275 96.5744 18.2773 94.0088 17.822C92.8345 17.6579 91.5455 17.469 90.145 17.2646C87.6352 16.8372 85.7265 15.8803 84.4189 14.3908C83.0711 12.861 82.3956 10.9998 82.3956 8.81034C82.3956 6.17806 83.2415 4.05366 84.9364 2.44333C86.5755 0.84538 88.9025 0.0309229 91.9173 0.00305176C95.5426 0.0866653 98.6969 1.12409 101.377 3.11224L98.9138 6.86246C96.7231 5.3729 94.3125 4.5987 91.6818 4.54296C90.3185 4.54296 89.1844 4.89599 88.2766 5.59587C87.3284 6.32671 86.842 7.41678 86.8141 8.86299C86.8141 9.73009 87.1394 10.5167 87.7963 11.2197C88.4501 11.935 89.4974 12.4336 90.9413 12.7092C91.7407 12.8486 92.8376 13.0065 94.2257 13.1861C96.9617 13.5732 98.985 14.5859 100.293 16.2241C101.588 17.8375 102.235 19.7111 102.235 21.8479C102.09 27.6079 98.6752 30.5313 91.9948 30.6149C87.6755 30.6149 83.9603 29.2461 80.8525 26.5054L83.7527 23.0711L83.7496 23.068Z" fill="#AE3625"/>
<path d="M124.486 4.29519H116.485V0.247681H136.908V4.29519H128.904V30.364H124.486V4.29519Z" fill="#AE3625"/>
<path d="M149.912 0.247681H154.575L159.158 21.6558H159.239L164.906 0.247681H168.11L173.755 21.6558H173.836L178.437 0.247681H183.1L175.813 30.364H172.11L166.545 8.6431H166.464L160.881 30.364H157.197L149.912 0.247681Z" fill="#AE3625"/>
<path d="M210.457 23.6285H199.389L197.149 30.364H192.464L203.07 0.247681H206.773L217.382 30.364H212.719L210.457 23.6285ZM209.196 19.5841L204.973 6.41031H204.892L200.669 19.5841H209.196Z" fill="#AE3625"/>
<path d="M231.471 0.247681H242.874C245.306 0.247681 247.289 0.907298 248.826 2.22963C250.676 3.73158 251.639 5.87146 251.72 8.65239C251.667 12.7433 249.79 15.5242 246.084 16.9983L252.839 30.3609H247.59L241.548 17.4906H235.89V30.3609H231.471V0.247681ZM235.89 13.4493H242.592C244.253 13.4215 245.495 12.926 246.325 11.9598C247.14 11.0617 247.549 9.95614 247.549 8.64619C247.521 7.07302 247.035 5.9334 246.084 5.23043C245.334 4.60797 244.249 4.29829 242.833 4.29829H235.89V13.4524V13.4493Z" fill="#AE3625"/>
<path d="M269.133 0.247681H279.346C283.297 0.275552 286.262 1.9695 288.236 5.32952C288.942 6.45986 289.388 7.64283 289.574 8.88155C289.72 10.1203 289.794 12.2633 289.794 15.3043C289.794 18.5405 289.68 20.798 289.453 22.0801C289.348 22.7273 289.187 23.3064 288.973 23.8143C288.747 24.3098 288.471 24.827 288.152 25.3627C287.297 26.781 286.11 27.9516 284.589 28.8745C283.08 29.8654 281.233 30.3609 279.043 30.3609H269.13V0.247681H269.133ZM273.552 26.0688H278.844C281.329 26.0688 283.133 25.1924 284.254 23.4396C284.75 22.7924 285.063 21.9686 285.196 20.9776C285.317 19.9991 285.376 18.1627 285.376 15.4715C285.376 12.7804 285.314 10.9719 285.196 9.84156C285.035 8.71123 284.657 7.79148 284.053 7.0885C282.823 5.33572 281.088 4.4872 278.841 4.54294H273.549V26.0688H273.552Z" fill="#AE3625"/>
<path d="M81.0012 50.5831H79.6781L75.5323 55.7579V50.5831H74.2495V60.8428H75.5323V57.3001L76.6818 55.8291L79.7463 60.8428H81.1716L77.5277 54.8908L81.0012 50.5831Z" fill="#AE3625"/>
<path d="M91.1676 56.1202H95.2855V55.1199H91.1676V51.6113H95.6356V50.5831H89.8848V60.8428H95.7502V59.8147H91.1676V56.1202Z" fill="#AE3625"/>
<path d="M110.025 56.0799C110.518 55.8446 110.902 55.5101 111.175 55.0735C111.447 54.6368 111.584 54.1166 111.584 53.5158C111.584 52.915 111.46 52.3948 111.212 51.9519C110.964 51.5091 110.595 51.1715 110.112 50.9362C109.628 50.7008 109.043 50.5831 108.358 50.5831H104.959V60.8428H106.242V56.433H108.37C108.405 56.433 108.439 56.4299 108.473 56.4268L110.344 60.8428H111.698L109.681 56.2193C109.799 56.179 109.914 56.1326 110.025 56.0799ZM106.239 51.5989H108.2C108.897 51.5989 109.421 51.763 109.771 52.0913C110.124 52.4195 110.301 52.8933 110.301 53.5158C110.301 54.1383 110.118 54.6121 109.759 54.9465C109.396 55.281 108.888 55.4482 108.228 55.4482H106.239V51.602V51.5989Z" fill="#AE3625"/>
<path d="M125.97 56.0799C126.463 55.8446 126.847 55.5101 127.119 55.0735C127.392 54.6368 127.528 54.1166 127.528 53.5158C127.528 52.915 127.404 52.3948 127.157 51.9519C126.909 51.5091 126.54 51.1715 126.057 50.9362C125.573 50.7008 124.988 50.5831 124.303 50.5831H120.904V60.8428H122.187V56.433H124.315C124.349 56.433 124.383 56.4299 124.418 56.4268L126.289 60.8428H127.643L125.626 56.2193C125.744 56.179 125.858 56.1326 125.97 56.0799ZM122.183 51.5989H124.145C124.842 51.5989 125.366 51.763 125.716 52.0913C126.069 52.4195 126.246 52.8933 126.246 53.5158C126.246 54.1383 126.063 54.6121 125.703 54.9465C125.341 55.281 124.833 55.4482 124.173 55.4482H122.183V51.602V51.5989Z" fill="#AE3625"/>
<path d="M138.131 50.5831H136.849V60.8428H138.131V50.5831Z" fill="#AE3625"/>
<path d="M151.058 55.1354L150.733 54.993C150.262 54.8319 149.887 54.6616 149.605 54.4789C149.323 54.2962 149.116 54.0949 148.986 53.8812C148.852 53.6644 148.787 53.4167 148.787 53.1349C148.787 52.788 148.871 52.4876 149.041 52.2337C149.212 51.9798 149.441 51.7847 149.732 51.6484C150.024 51.5122 150.367 51.444 150.761 51.444C151.213 51.444 151.66 51.5493 152.1 51.763C152.543 51.9736 152.927 52.2585 153.255 52.6146L153.609 51.698C153.261 51.314 152.831 51.0012 152.32 50.7689C151.808 50.5336 151.241 50.4159 150.622 50.4159C150.002 50.4159 149.484 50.5305 149.013 50.7596C148.542 50.9888 148.174 51.3202 147.907 51.7475C147.638 52.1749 147.504 52.6797 147.504 53.2619C147.504 53.6861 147.597 54.067 147.78 54.4108C147.963 54.7545 148.248 55.0611 148.632 55.3336C149.017 55.6061 149.515 55.8539 150.126 56.0799L150.464 56.2069C151.176 56.4887 151.694 56.786 152.013 57.0957C152.332 57.4054 152.493 57.777 152.493 58.2074C152.493 58.5543 152.4 58.864 152.211 59.1303C152.022 59.3997 151.768 59.6072 151.449 59.7589C151.13 59.9076 150.773 59.985 150.377 59.985C149.85 59.985 149.351 59.8673 148.874 59.632C148.4 59.3966 147.997 59.0962 147.669 58.7308L147.315 59.6474C147.653 60.05 148.099 60.3814 148.654 60.6353C149.209 60.8893 149.819 61.0162 150.488 61.0162C151.108 61.0162 151.669 60.8955 152.165 60.657C152.663 60.4185 153.054 60.0779 153.342 59.6351C153.63 59.1922 153.773 58.6812 153.773 58.099C153.773 57.4239 153.553 56.8479 153.116 56.3741C152.679 55.9003 151.991 55.4884 151.049 55.1416L151.058 55.1354Z" fill="#AE3625"/>
<path d="M168.683 51.218C167.998 50.7968 167.18 50.5831 166.229 50.5831H162.985V60.8428H166.229C167.177 60.8428 167.995 60.6322 168.683 60.208C169.368 59.7837 169.895 59.1891 170.254 58.418C170.616 57.6469 170.796 56.7458 170.796 55.7114C170.796 54.6771 170.616 53.7759 170.254 53.0048C169.891 52.2337 169.368 51.6391 168.683 51.2149V51.218ZM169.058 57.8885C168.81 58.5047 168.441 58.9785 167.952 59.313C167.462 59.6475 166.858 59.8116 166.133 59.8116H164.271V51.6113H166.133C166.858 51.6113 167.462 51.7785 167.952 52.1099C168.441 52.4443 168.81 52.9181 169.058 53.5344C169.306 54.1506 169.433 54.8753 169.433 55.7114C169.433 56.5476 169.309 57.2722 169.058 57.8885Z" fill="#AE3625"/>
<path d="M182.093 50.5831L178.821 60.8428H180.02L180.823 58.1641H184.715L185.517 60.8428H186.843L183.599 50.5831H182.09H182.093ZM181.123 57.1638L182.769 51.6825L184.414 57.1638H181.123Z" fill="#AE3625"/>
<path d="M197.022 50.5831H195.739V60.8428H200.786V59.8147H197.022V50.5831Z" fill="#AE3625"/>
<path d="M210.968 59.8147V56.1202H215.083V55.1199H210.968V51.6113H215.436V50.5831H209.686V60.8428H215.548V59.8147H210.968Z" fill="#AE3625"/>
</g>
<defs>
<clipPath id="clip0_95_144">
<rect width="289.797" height="61.01" fill="white"/>
</clipPath>
</defs>
</svg>
